DBRep_DrawableShape

CASCADE Topology V1, (c) Matra-Datavision
Locations 10
1
              1               0               0               0 
              0               1               0               0 
              0               0               1               0 
1
              1               0               0               0 
              0               1               0               0 
              0               0               1               0 
1
              1               0               0               0 
              0               1               0               0 
              0               0               1               0 
1
              1               0               0               0 
              0               1               0               0 
              0               0               1               0 
2  2 1 3 1 4 -1 0
1
              1               0               0               0 
              0               1               0               0 
              0               0               1              33 
2  2 1 3 1 4 -1 6 1 0
2  4 -1 0
2  2 1 3 1 0
2  4 -1 6 1 0
Curve2ds 0
Curves 8
1 -61.383583000000002 33.187438999999998 0 0 0 1 
1 27.583149000000006 33.187438999999998 0 0 0 1 
1 -61.383583000000002 33.187438999999998 0 1 0 0 
1 37.565632000000001 -16.024467000000001 0 0 0 1 
1 27.583149000000006 33.187438999999998 0 0.19879817578951231 -0.98004045085025038 0 
1 -30.910718999999993 -27.408004999999999 0 0 0 1 
1 37.565632000000001 -16.024467000000001 0 -0.98646202279900563 -0.16398987034354892 0 
1 -30.910718999999993 -27.408004999999999 0 -0.44927817449764618 0.89339191955158326 0 
Polygon3D 0
PolygonOnTriangulations 0
Surfaces 5
1 -61.383583000000002 33.187438999999998 0 0 1 0 1 0 0 0 0 -1 
1 27.583149000000006 33.187438999999998 0 0.98004045085025049 0.19879817578951234 -0 0.19879817578951234 -0.98004045085025049 0 0 -0 -1 
1 37.565632000000001 -16.024467000000001 0 0.16398987034354895 -0.98646202279900574 0 -0.98646202279900574 -0.16398987034354895 0 0 -0 -1 
1 -30.910718999999993 -27.408004999999999 0 -0.89339191955158326 -0.44927817449764618 0 -0.44927817449764618 0.89339191955158326 0 -0 0 -1 
1 -10.009546934209846 7.4958679401495791 0 0 0 1 1 0 -0 -0 1 0 
Triangulations 0

TShapes 25
Ve
1e-07
-61.383583 33.187439 0
0 0

0101101
*
Ed
 1e-07 1 1 0
1  1 0 0 33
0

0101000
+25 5 -25 7 *
Ve
1e-07
27.583149 33.187439 0
0 0

0101101
*
Ed
 1e-07 1 1 0
1  2 0 0 33
0

0101000
+23 5 -23 7 *
Ed
 1e-07 1 1 0
1  3 0 0 88.966732
0

0101000
+25 0 -23 0 *
Wi

0101100
+24 0 -22 0 -21 5 +21 7 *
Fa
0  1e-07 1 0

0111000
+20 0 *
Ve
1e-07
37.565632 -16.024467 0
0 0

0101101
*
Ed
 1e-07 1 1 0
1  4 0 0 33
0

0101000
+18 5 -18 7 *
Ed
 1e-07 1 1 0
1  5 0 0 50.21415795369
0

0101000
+23 0 -18 0 *
Wi

0101100
+22 0 -17 0 -16 5 +16 7 *
Fa
0  1e-07 2 0

0111000
+15 0 *
Ve
1e-07
-30.910719 -27.408005 0
0 0

0101101
*
Ed
 1e-07 1 1 0
1  6 0 0 33
0

0101000
+13 5 -13 7 *
Ed
 1e-07 1 1 0
1  7 0 0 69.4161046420256
0

0101000
+18 0 -13 0 *
Wi

0101100
+17 0 -12 0 -11 5 +11 7 *
Fa
0  1e-07 3 0

0111000
+10 0 *
Ed
 1e-07 1 1 0
1  8 0 0 67.8262727408755
0

0101000
+13 0 -25 0 *
Wi

0101100
+12 0 -24 0 -8 5 +8 7 *
Fa
0  1e-07 4 0

0111000
+7 0 *
Wi

0101100
+21 0 +16 0 +11 0 +8 0 *
Fa
0  1e-07 5 0

0111000
-5 9 *
Sh

0101100
-19 0 -14 0 -9 0 -6 0 +4 8 -4 10 *
So

0100000
-3 0 *
Co

1100000
+2 1 *

+1 0 